<?xml version="1.0" encoding="utf-8"?>
<!-- Generator: Adobe Illustrator 19.1.0, SVG Export Plug-In . SVG Version: 6.00 Build 0)  -->
<!DOCTYPE svg PUBLIC "-//W3C//DTD SVG 1.1//EN" "http://www.w3.org/Graphics/SVG/1.1/DTD/svg11.dtd">
<svg version="1.1" id="Layer_1" xmlns="http://www.w3.org/2000/svg" xmlns:xlink="http://www.w3.org/1999/xlink" x="0px" y="0px"
	 viewBox="-2765 2857 1080 1080" enable-background="new -2765 2857 1080 1080" xml:space="preserve">
<path fill="#986844" d="M-1811.2,3598.5c-0.1-4.3-0.3-11.3-0.8-20.3c-0.9-15.8-2.7-40.9-6.6-70.7c-6.9-52.6-21.6-130.1-52.6-200.4
	c-22.3-50.4-53.5-97.1-90.3-135.2c-4.4-20.5-16.7-66.5-43.5-104.8l-5-7.2l-54,35.5c-44.5-22.4-91-33.7-138.6-33.7
	c-47.5,0-94.1,11.3-138.6,33.7l-54-35.5l-5,7.2c-26.8,38.3-39,84.3-43.5,104.8c-36.8,38.1-68,84.8-90.3,135.3
	c-31.1,70.3-45.8,147.8-52.6,200.4c-6.1,46.6-7.2,81.6-7.5,93.8c16.6,14,31.3,29.8,46.9,45c17.2,16.7,39.4,28.2,59.1,41.6
	c1.7,1.1,3.1,2.6,4.2,4.1c15.7,10.4,31,15.4,50.2,19.5c19.2,4.1,35.6,5.6,55.6,7.3c38.7,3.2,77,7.7,115.5,12.6
	c43.1,5.4,86.5,11.5,130,13.1c41.6,1.5,81.8-9,121.8-19.3c8.9-2.3,17.9-4.5,26.8-6.8c0.6-4.2,3-8.1,6.7-10.4
	c40.1-25,81.2-48.2,122-72c5.9-3.5,13.7-1.9,17.9,3.3c9-8.9,17.1-18.2,24.3-27.9l0.2-0.2l0.2-0.2
	C-1811,3608.5-1810.9,3608.4-1811.2,3598.5z"/>
<path fill="#FFFFFF" d="M-1808.7,3494.8c-6.9-53.2-21.8-131.7-53.4-203.2c-22.3-50.5-53.5-97.5-90.3-136.1
	c-5.5-24.4-18.2-68.2-44.5-105.7l-10.6-15.1l-57.3,37.7c-44.3-21.4-90.6-32.2-137.9-32.2c-47.2,0-93.6,10.8-137.9,32.2l-57.3-37.7
	l-10.6,15.1c-26.2,37.5-39,81.2-44.5,105.7c-36.7,38.5-67.9,85.5-90.3,136.1c-31.6,71.4-46.5,149.9-53.4,203.2
	c-7.5,57.7-7.6,98-7.6,99.7l0,6.3l3.8,5.1c26,35,62.9,64.7,109.6,88.3c36.9,18.6,80,33.6,128.3,44.4c82.2,18.5,151.8,19,159.5,19
	h0.6c7.7,0,77.3-0.5,159.5-19c48.3-10.8,91.4-25.8,128.3-44.4c46.7-23.6,83.6-53.3,109.6-88.3l3.7-5v-6.3
	C-1801,3592.8-1801.2,3552.3-1808.7,3494.8z M-1927,3669.1c-34.8,17.6-75.8,31.8-121.8,42.1c-80.7,18.1-150.4,18.3-153.4,18.3
	l-0.3,0l-0.3,0c-2.9,0-72.7-0.2-153.4-18.3c-46-10.3-87-24.5-121.8-42.1c-41.7-21.1-74.7-47.2-98-77.6
	c0.4-22.5,5.1-167.5,58.6-288.5c21.8-49.3,52.4-94.9,88.5-131.8l1.8-1.9l0.5-2.6c2.7-13.1,12.9-56.4,36.3-93.4l37.2,24.5l-7.3,16.6
	l22.8-11.9c43.3-22.6,88.7-34.1,135-34.1c46.3,0,91.7,11.5,135,34.1l22.8,11.9l-7.3-16.6l37.2-24.5c23.4,37,33.6,80.4,36.3,93.4
	l0.5,2.6l1.8,1.9c36.1,36.9,66.7,82.5,88.5,131.8c53.5,121,58.2,266.1,58.6,288.5C-1852.4,3621.9-1885.3,3648-1927,3669.1z
	 M-2090,3656.1c0,30.1-50.4,54.4-112.5,54.4c-62.1,0-112.5-24.4-112.5-54.4c0-30.1,50.4-54.4,112.5-54.4
	C-2140.4,3601.7-2090,3626-2090,3656.1z M-2313.5,3590.8c0,12.3-10,22.3-22.3,22.3c-12.3,0-22.3-10-22.3-22.3
	c0-12.3,10-22.3,22.3-22.3C-2323.5,3568.4-2313.5,3578.4-2313.5,3590.8z M-2045.7,3590.8c0,12.3-10,22.3-22.3,22.3
	c-12.3,0-22.3-10-22.3-22.3c0-12.3,10-22.3,22.3-22.3C-2055.7,3568.4-2045.7,3578.4-2045.7,3590.8z"/>
</svg>
